-
 
http://www.Speed. Cd       the fast  and The Hottest Private Tracker on the net 
http://www.Speed. Cd

Please Seed back to make the speed Faster!!
 ............ NFO .............
-
 
http://www.Speed. Cd                                                                                                     
       
     
     
       
       
     
     
                                         
                                         
                EXVID                    
                                         
         
                                         
         Filled the Archives             
                                         
         
                                         
                With:                    
                                         
         
                                         
                                    
     E240                           
                                    
     SP               (C) 2009      
                                         
     
     
     
                                                                                  
                                                                                   
    House.At.The.End.Of.The.Street.2012.Theatrical.Cut.DVDRip.XviD-EXViD            
                                                                                   
                                                                                  
     
                                                                                               
EXViD aims to iNTERNAL those releases which have been lost in the archives.
EXViD aims to PRE non-internal releases which have poor sources and are likely skipped by others. 
http://www.imdb.com/title/tt1582507/
Subtitles: NL, FR
Date: 2013.04

Director: Mark Tonderai

Genres: Horror |  Thriller

Plot:
Newly divorced Sarah and her daughter Elissa find the house of their dreams in a small,
upscale, rural town. But when startling and unexplainable events begin to happen,
Sarah and Elissa learn the town is in the shadows of a chilling secret.

Cast:
Jennifer Lawrence 	 ... 	Elissa 
Max Thieriot 	 ... 	Ryan 
Elisabeth Shue 	 ... 	 Sarah 
Gil Bellows 	 ... 	 Weaver 
Eva Link 	 ... 	Carrie Anne 
Nolan Gerard Funk 	 ... 	 Tyler 
Allie MacDonald 	 ... 	 Jillian 
Jordan Hayes 	 ... 	 Penn State Carrie Anne 
Krista Bridges 	 ... 	 Mary Jacobson 
James Thomas 	 ... 	 Ben Reynolds 
Hailee Sisera 	 ... 	 Caitlin 
Craig Eldridge 	 ... 	 Dan Gifford 
Jonathan Higgins 	 ... 	 Dr. Kohler 
Olivier Surprenant 	 ... 	 Jake 
Lori Alter 	 ... 	 Jenny Gifford

Stats:
Format                           : AVI
Format/Info                      : Audio Video Interleave
File size                        : 700 MiB
Duration                         : 1h 36mn
Overall bit rate                 : 1 013 Kbps
Writing application              : VirtualDubMod 1.5.10.2 (build 2540/release)
Writing library                  : VirtualDubMod build 2540/release

Video
ID                               : 0
Format                           : MPEG-4 Visual
Format profile                   : Advanced Simple@L5
Format settings, BVOP            : Yes
Format settings, QPel            : No
Format settings, GMC             : No warppoints
Format settings, Matrix          : Default (H.263)
Muxing mode                      : Packed bitstream
Codec ID                         : XVID
Codec ID/Hint                    : XviD
Duration                         : 1h 36mn
Bit rate                         : 869 Kbps
Width                            : 640 pixels
Height                           : 272 pixels
Display aspect ratio             : 2.35:1
Frame rate                       : 25.000 fps
Color space                      : YUV
Chroma subsampling               : 4:2:0
Bit depth                        : 8 bits
Scan type                        : Progressive
Bits/(Pixel*Frame)               : 0.200
Stream size                      : 601 MiB (86%)
Writing library                  : XviD 64

Audio
ID                               : 1
Format                           : MPEG Audio
Format version                   : Version 1
Format profile                   : Layer 3
Mode                             : Joint stereo
Codec ID                         : 55
Codec ID/Hint                    : MP3
Duration                         : 1h 36mn
Bit rate mode                    : Variable
Bit rate                         : 130 Kbps
Minimum bit rate                 : 128 Kbps
Channel(s)                       : 2 channels
Sampling rate                    : 48.0 KHz
Stream size                      : 90.1 MiB (13%)
Alignment                        : Aligned on interleaves
Interleave, duration             : 24 ms (0.60 video frame)
Interleave, preload duration     : 444 ms
Writing library                  : LAME4.0a
Encoding settings                : -m j -V 4 -q 5 -lowpass 17.5 --vbr-old -b 128




Release notes:
Around 1 minute less footage than SPARKS rls.

See http://www.imdb.com/title/tt1582507/faq for more info.

enjoy!

Looking for:
75TB+ Archives
DUTCH/FLEMiSH Archives
                                                                                                    
Greets: CRBS EPiSODE FiCO FLS iLS KLASSiGER LiPSYNC MADE NODLABS RUNNER SPRiNTER      
   

                                                                    ASCII DONE BY XX^NFO 2oo9